<?xml version="1.0" encoding="UTF-8"?>
<svg width="30px" height="40px" viewBox="0 0 30 40" version="1.1" xmlns="http://www.w3.org/2000/svg" xmlns:xlink="http://www.w3.org/1999/xlink">
    <title>5EA28C00-7183-44EE-9998-CA905E70C2C2</title>
    <g id="Desktop" stroke="none" stroke-width="1" fill="none" fill-rule="evenodd">
        <g id="HOME--" transform="translate(-1000.000000, -519.000000)" fill="#FFFFFF" fill-rule="nonzero">
            <g id="REGIE" transform="translate(960.000000, 100.000000)">
                <g id="Group" transform="translate(30.000000, 419.000000)">
                    <g id="director-chair-(2)" transform="translate(10.000000, 0.000000)">
                        <path d="M28.8463018,23.5935659 L27.6924497,23.5935659 L27.6924497,1.17186586 C27.6924497,0.524683406 27.1758317,0 26.5385976,0 C25.9013636,0 25.3847456,0.524683406 25.3847456,1.17186586 L25.3847456,2.87857129 C18.7424038,5.47698852 11.25775,5.47698852 4.61540828,2.87857129 L4.61540828,1.17186586 C4.61540828,0.524683406 4.09879025,0 3.46155621,0 C2.82432218,0 2.30770414,0.524683406 2.30770414,1.17186586 L2.30770414,23.5935659 L1.15385207,23.5935659 C0.516618034,23.5935659 0,24.1182493 0,24.7654318 C0,25.4126142 0.516618034,25.9372976 1.15385207,25.9372976 L3.14193919,25.9372976 L12.7573731,31.7966269 L2.86786086,37.8229862 C2.32139652,38.1559523 2.14424177,38.8757904 2.4720896,39.4307861 C2.79947589,39.9850005 3.50801799,40.166171 4.05517464,39.8327361 L15,33.163335 L25.9448254,39.8327361 C26.4934436,40.1669522 27.2012164,39.9837506 27.5279104,39.4307861 C27.8558352,38.8757904 27.6786035,38.1560304 27.1321391,37.8229862 L17.2426269,31.7966269 L26.8580608,25.9372976 L28.8461479,25.9372976 C29.483382,25.9372976 30,25.4126142 30,24.7654318 C30,24.1182493 29.4836127,23.5935659 28.8463018,23.5935659 L28.8463018,23.5935659 Z M4.61540828,14.7529318 C7.95281001,15.9540162 11.4381356,16.5623708 15.0000769,16.5623708 C18.5620183,16.5623708 22.0473438,15.9540162 25.3847456,14.7529318 L25.3847456,23.5935659 L4.61540828,23.5935659 L4.61540828,14.7529318 Z M15.0000769,30.429997 L7.62734681,25.9372976 L22.372884,25.9372976 L15.0000769,30.429997 Z" id="Shape"></path>
                    </g>
                </g>
            </g>
        </g>
    </g>
</svg>