<?xml version="1.0" encoding="UTF-8"?>
<svg width="30px" height="26px" viewBox="0 0 30 26" version="1.1" xmlns="http://www.w3.org/2000/svg" xmlns:xlink="http://www.w3.org/1999/xlink">
    <title>3EC360B1-A1F5-4606-996D-A7F9E1A9364C</title>
    <g id="Desktop" stroke="none" stroke-width="1" fill="none" fill-rule="evenodd">
        <g id="HOME--" transform="translate(-40.000000, -533.000000)" fill="#FFFFFF" fill-rule="nonzero">
            <g id="VIDEO" transform="translate(0.000000, 100.000000)">
                <g id="Group-2" transform="translate(30.000000, 433.000000)">
                    <g id="video-camera-(3)" transform="translate(10.000000, 0.000000)">
                        <path d="M29.8205128,13.6069884 C29.4974359,13.0319468 28.7435897,12.8163062 28.1333333,13.1757072 L24.0410256,15.5477537 L23,16.1587354 L23,21.8372712 L23.9692308,22.4123128 C24.0051282,22.4123128 24.0051282,22.4482529 24.0410256,22.4482529 L28.0615385,24.7843594 C28.2410256,24.9281198 28.4923077,25 28.7435897,25 C29.425641,25 29.9641026,24.4608985 29.9641026,23.7780366 L29.9641026,18.9620632 L30,14.21797 C30,14.0023295 29.9641026,13.7866889 29.8205128,13.6069884 Z" id="Path"></path>
                        <path d="M6.00018918,12 C9.31685479,12 12,9.31677019 12,6 C12,2.68322981 9.31685479,0 6.00018918,0 C2.68352357,0 0.000378364389,2.68322981 0.000378364389,6 C-0.0368875413,9.31677019 2.68352357,12 6.00018918,12 Z M6.00018918,3.54037267 C7.37902769,3.54037267 8.45973896,4.65838509 8.45973896,6 C8.45973896,7.37888199 7.34176179,8.45962733 6.00018918,8.45962733 C4.65861658,8.45962733 3.54063941,7.34161491 3.54063941,6 C3.5033735,4.62111801 4.62135067,3.54037267 6.00018918,3.54037267 Z" id="Shape"></path>
                        <path d="M20.5340314,12.3482587 C19.5811518,12.800995 18.5183246,13.079602 17.382199,13.079602 C15.9895288,13.079602 14.6701571,12.6965174 13.5706806,12 L9.39267016,12 C8.29319372,12.6965174 6.97382199,13.079602 5.58115183,13.079602 C4.44502618,13.079602 3.38219895,12.8358209 2.42931937,12.3482587 C1.58638743,12.800995 1,13.7064677 1,14.681592 L1,23.1791045 C1,24.7462687 2.35602094,26 3.96858639,26 L19.0314136,26 C20.6806283,26 22,24.7114428 22,23.1791045 L22,14.681592 C21.9633508,13.7064677 21.3769634,12.800995 20.5340314,12.3482587 Z" id="Path"></path>
                        <path d="M17,12 C20.3167702,12 23,9.31677019 23,6 C23,2.68322981 20.3167702,0 17,0 C13.6832298,0 11,2.68322981 11,6 C11,9.31677019 13.6832298,12 17,12 Z M17,3.54037267 C18.378882,3.54037267 19.4596273,4.65838509 19.4596273,6 C19.4596273,7.37888199 18.3416149,8.45962733 17,8.45962733 C15.6583851,8.45962733 14.5403727,7.34161491 14.5403727,6 C14.5403727,4.62111801 15.621118,3.54037267 17,3.54037267 Z" id="Shape"></path>
                    </g>
                </g>
            </g>
        </g>
    </g>
</svg>