<?xml version="1.0" encoding="UTF-8"?>
<svg width="27px" height="27px" viewBox="0 0 27 27" version="1.1" xmlns="http://www.w3.org/2000/svg" xmlns:xlink="http://www.w3.org/1999/xlink">
    <title>B6D9061A-856E-4C4B-821F-E4DB7135BF9D</title>
    <g id="Desktop" stroke="none" stroke-width="1" fill="none" fill-rule="evenodd">
        <g id="HOME--" transform="translate(-232.000000, -1787.000000)">
            <g id="FOOTER-Copy" transform="translate(0.000000, 1295.000000)">
                <g id="Instagram-Icon" transform="translate(232.666667, 493.000000)">
                    <g id="Group-12-Copy" transform="translate(0.333333, 0.000000)" stroke="#FFFFFF">
                        <circle id="Oval" cx="12.5" cy="12.5" r="12.5"></circle>
                    </g>
                    <g id="instagram-(1)" transform="translate(7.333333, 7.000000)" fill="#FFFFFF" fill-rule="nonzero">
                        <path d="M7.80469336,0 L3.19532813,0 C1.43341602,0 0,1.43341602 0,3.19532813 L0,7.80467188 C0,9.56658398 1.43341602,11 3.19532813,11 L7.80467188,11 C9.56658398,11 11,9.56658398 11,7.80469336 L11,3.19532813 C11,1.43341602 9.56658398,0 7.80469336,0 Z M10.140625,7.80467187 C10.140625,9.09272461 9.09272461,10.140625 7.80469336,10.140625 L3.19532813,10.140625 C1.90727539,10.140625 0.859375,9.09272461 0.859375,7.80469336 L0.859375,3.19532813 C0.859375,1.90727539 1.90727539,0.859375 3.19532813,0.859375 L7.80467188,0.859375 C9.09272461,0.859375 10.140625,1.90727539 10.140625,3.19532813 L10.140625,7.80467187 Z" id="Shape"></path>
                        <path d="M5.5,2.52459016 C3.85934177,2.52459016 2.52459016,3.85934177 2.52459016,5.5 C2.52459016,7.14065823 3.85934177,8.47540984 5.5,8.47540984 C7.14065823,8.47540984 8.47540984,7.14065823 8.47540984,5.5 C8.47540984,3.85934177 7.14065823,2.52459016 5.5,2.52459016 Z M5.5,7.6129722 C4.33491144,7.6129722 3.3870278,6.66508856 3.3870278,5.5 C3.3870278,4.33491144 4.33491144,3.3870278 5.5,3.3870278 C6.66508856,3.3870278 7.6129722,4.33491144 7.6129722,5.5 C7.6129722,6.66508856 6.66508856,7.6129722 5.5,7.6129722 Z" id="Shape"></path>
                        <circle id="Oval" cx="8.56557377" cy="2.43442623" r="1"></circle>
                    </g>
                </g>
            </g>
        </g>
    </g>
</svg>