<?xml version="1.0" encoding="UTF-8"?>
<svg width="30px" height="46px" viewBox="0 0 30 46" version="1.1" xmlns="http://www.w3.org/2000/svg" xmlns:xlink="http://www.w3.org/1999/xlink">
    <title>5ED83798-97A5-4FFA-8F67-6DA933199B3E</title>
    <g id="Desktop" stroke="none" stroke-width="1" fill="none" fill-rule="evenodd">
        <g id="HOME--" transform="translate(-520.000000, -513.000000)" fill="#FFFFFF" fill-rule="nonzero">
            <g id="EVENEMENT" transform="translate(480.000000, 100.000000)">
                <g id="Group-3" transform="translate(30.000000, 413.000000)">
                    <g id="microphone-with-wire" transform="translate(10.000000, 0.000000)">
                        <path d="M22.9997431,0 C26.8664831,0 30,3.13421331 30,7.00020556 C30,10.866095 26.8664831,14 22.9997431,14 C19.1343391,14 16,10.866095 16,7.00020556 C16,3.13421331 19.1342363,0 22.9997431,0 Z" id="Path"></path>
                        <path d="M7.04545485,27 C7.6608353,27 8.20688931,26.7331788 8.58179369,26.3194548 L21,15.3211283 C18.5352285,14.7459156 16.4887988,13.1370701 15.3862918,11 L5.57584272,23.5603923 C5.21426202,24.0460048 5,24.4694181 5,25.0317117 C5,26.1181668 5.91684213,27 7.04545485,27 Z" id="Path"></path>
                        <path d="M1.56070391,37.29833 C5.46845156,40.3187444 11.4755737,34.5975591 11.7000048,34.3792358 C11.7645237,34.3225914 18.1005995,28.7112901 21.0544123,32.0347364 C21.671085,32.7261279 21.92875,33.526578 21.8469988,34.4812782 C21.5363033,38.0210875 16.6491826,42.6089725 14.7914715,44.0777024 C14.3277361,44.4449107 14.2472158,45.121651 14.6119677,45.5886318 C14.8228591,45.8589565 15.1352983,46 15.4530715,46 C15.6828364,46 15.9171146,45.9239583 16.1102607,45.7712558 C16.4140838,45.5314716 23.5212056,39.8672402 23.9759145,34.67195 C24.1127478,33.1132494 23.6660396,31.743673 22.6489195,30.600055 C21.3467472,29.1351427 18.88498,27.8268536 14.5667327,29.9120683 C12.2026156,31.0515592 10.3538285,32.7049766 10.2479725,32.7996934 C8.97759808,34.022758 4.8933212,37.159866 2.86246587,35.591054 C2.42037351,35.2495369 2.19327549,34.8365179 2.14557875,34.291535 C1.98566646,32.4097861 3.96328608,29.7006579 4.94706979,28.5669449 L7.13824771,27.7983767 C7.13824771,27.7983767 6.69943771,27.7491611 5.66621352,26.8175726 C4.70007248,25.9442793 4.44374098,25 4.44374098,25 L3.45759808,27.0152604 C2.75527642,27.8029165 -0.245002309,31.3686233 0.016047584,34.4726113 C0.111748783,35.6150944 0.645644536,36.5925968 1.56070391,37.29833 Z" id="Path"></path>
                    </g>
                </g>
            </g>
        </g>
    </g>
</svg>