<?xml version="1.0" encoding="UTF-8"?>
<svg width="11px" height="21px" viewBox="0 0 11 21" version="1.1" xmlns="http://www.w3.org/2000/svg" xmlns:xlink="http://www.w3.org/1999/xlink">
    <title>BDB59071-DD83-4D82-800E-FCD0D931F889</title>
    <g id="Desktop" stroke="none" stroke-width="1" fill="none" fill-rule="evenodd">
        <g id="ABOUT-ME--Copy" transform="translate(-99.000000, -681.000000)" fill="#FBFBFB" fill-rule="nonzero">
            <g id="Group-10-Copy-6" transform="translate(80.000000, 667.000000)">
                <g id="white-arrow-down" transform="translate(19.261905, 14.250000)">
                    <path d="M15.253216,9.65196976 C15.2529758,9.6517163 15.2527756,9.6514206 15.2524953,9.65116715 L11.0682552,5.25792351 C10.7547896,4.92881042 10.2477752,4.93003546 9.93575091,5.26079602 C9.62376669,5.59151433 9.62496786,6.12643398 9.93843352,6.45558931 L12.7477329,9.4051455 L-4.21112391,9.4051455 C-4.65339517,9.4051455 -5.01190476,9.78338688 -5.01190476,10.25 C-5.01190476,10.7166132 -4.65339517,11.0948546 -4.21112391,11.0948546 L12.7476929,11.0948546 L9.93847356,14.0444108 C9.6250079,14.3735661 9.62380673,14.9084858 9.93579095,15.2392041 C10.2478152,15.5700069 10.7548696,15.5711474 11.0682953,15.2420766 L15.2525354,10.848833 C15.2527756,10.8485795 15.2529758,10.8482838 15.2532561,10.8480303 C15.5668819,10.5177767 15.5658809,9.98112509 15.253216,9.65196976 Z" id="Path" transform="translate(5.238095, 10.250000) rotate(90.000000) translate(-5.238095, -10.250000) "></path>
                </g>
            </g>
        </g>
    </g>
</svg>